<svg xmlns="http://www.w3.org/2000/svg" xmlns:xlink="http://www.w3.org/1999/xlink" width="30" height="45" viewBox="0 0 30 45"><defs><path id="943da" d="M746.85 6037v-23.09h2.3v23.1m13.42-25.66c-.2.16-.46.25-.73.25h-5.76v16.17h-2.31v-17.32c0-.64.51-1.16 1.15-1.16h4.52L748 5994.98l-11.44 14.31h9.13v2.31h-3.46v16.17h-2.3v-16.17h-5.78a1.15 1.15 0 0 1-.9-1.87l13.85-17.32a1.2 1.2 0 0 1 1.8 0l13.85 17.32c.4.5.31 1.22-.18 1.62z"/></defs><g><g opacity=".9" transform="translate(-733 -5992)"><use fill="#e30613" xlink:href="#943da"/></g></g></svg>