<svg xmlns="http://www.w3.org/2000/svg" xmlns:xlink="http://www.w3.org/1999/xlink" width="16" height="16" viewBox="0 0 16 16"><defs><path id="dzdpa" d="M642 7560a8 8 0 1 1-16.02-.02 8 8 0 0 1 16.02.02zm-1.05 0a6.96 6.96 0 1 0-13.92.02 6.96 6.96 0 0 0 13.92-.02z"/><path id="dzdpb" d="M636.9 7557.38l-4.13 4.13-1.67-1.67a.52.52 0 1 0-.74.74l2.04 2.04c.1.1.24.15.37.15.14 0 .27-.05.37-.15l4.5-4.5a.52.52 0 1 0-.74-.74z"/></defs><g><g opacity=".15" transform="translate(-626 -7552)"><use xlink:href="#dzdpa"/></g><g transform="translate(-626 -7552)"><use fill="#e42120" xlink:href="#dzdpb"/></g></g></svg>