<svg xmlns="http://www.w3.org/2000/svg" xmlns:xlink="http://www.w3.org/1999/xlink" width="33" height="33" viewBox="0 0 33 33"><defs><path id="4l8ua" d="M932 63.5c0 9.1-7.4 16.5-16.5 16.5S899 72.6 899 63.5 906.4 47 915.5 47 932 54.4 932 63.5zm-1.27 0c0-8.4-6.83-15.23-15.23-15.23s-15.23 6.83-15.23 15.23 6.83 15.23 15.23 15.23 15.23-6.83 15.23-15.23zm-9.07-5.26l-5.26 5.26 5.26 5.26a.63.63 0 1 1-.9.9l-5.26-5.26-5.26 5.26a.63.63 0 1 1-.9-.9l5.26-5.26-5.26-5.26a.63.63 0 1 1 .9-.9l5.26 5.26 5.26-5.26a.63.63 0 1 1 .9.9z"/></defs><g><g transform="translate(-899 -47)"><use fill="#fff" xlink:href="#4l8ua"/></g></g></svg>