<svg xmlns="http://www.w3.org/2000/svg" xmlns:xlink="http://www.w3.org/1999/xlink" width="25" height="29" viewBox="0 0 25 29"><defs><path id="dsaga" d="M125 1025.25c-.27 0-.47-.02-.63-.05v-2.51c.14-.04.4-.08.77-.08.94 0 1.46.47 1.46 1.25 0 .87-.6 1.39-1.6 1.39zm9.97.08c0 2.03-1.1 2.99-2.8 2.98-.23 0-.49 0-.65-.04v-5.56c.16-.03.43-.07.85-.07 1.6 0 2.61.93 2.6 2.7zM145 1021v8.45c0 .9-.7 1.63-1.58 1.63h-.68v5.78c0 .63-.5 1.14-1.1 1.14h-18.27c-.62 0-1.11-.51-1.11-1.14v-5.78h-.68a1.6 1.6 0 0 1-1.58-1.63V1021c0-.9.7-1.63 1.58-1.63h.68v-9.23c0-.63.5-1.14 1.1-1.14h13.38a.5.5 0 0 1 .13.02h.03a.62.62 0 0 1 .26.17l5.44 6.4c.1.1.14.23.14.36v3.42h.68c.87 0 1.58.73 1.58 1.63zm-21.63-1.63h18.26v-2.85h-4.89a.56.56 0 0 1-.55-.56v-5.82h-12.82zm12.19 2.7c-.8-.62-1.82-.9-3.39-.9-.94 0-1.84.05-2.52.17v8.34c.46.06 1.15.13 2.12.13 1.62 0 2.94-.36 3.81-1.1.8-.7 1.38-1.81 1.38-3.44 0-1.5-.54-2.54-1.4-3.2zm-13.04 7.65h1.85v-3.04c.17.03.4.04.64.04 1.1 0 2.05-.28 2.69-.9.49-.47.76-1.18.76-2.01a2.5 2.5 0 0 0-.89-1.97c-.55-.45-1.37-.68-2.52-.68-1.14 0-1.95.08-2.53.18zm19.11 1.36h-18.26v5.47h18.26zm1.6-9.86h-5.04v8.5h1.87v-3.42h2.97v-1.56h-2.97v-1.94h3.18z"/></defs><g><g transform="translate(-120 -1009)"><use fill="#ffffff" xlink:href="#dsaga"/></g></g></svg>