<svg xmlns="http://www.w3.org/2000/svg" xmlns:xlink="http://www.w3.org/1999/xlink" width="12" height="20" viewBox="0 0 12 20"><defs><path id="fhnaa" d="M239.2 61.18a3.36 3.36 0 0 0-.9-1.26c-.36-.3-.76-.57-1.2-.78a8.06 8.06 0 0 0-1.33-.52l-1.21-.37a3.06 3.06 0 0 1-.89-.45c-.23-.17-.35-.38-.35-.62 0-.2.06-.38.17-.53.11-.14.27-.25.47-.33a2.46 2.46 0 0 1 2.75.89 3.78 3.78 0 0 0 2.13-2.55 5.6 5.6 0 0 0-3.67-2.09c.05-.6.08-1.2.1-1.8a4.17 4.17 0 0 0-2.86 0c.02.64.05 1.27.1 1.9a4.61 4.61 0 0 0-2.57 1.5 4.1 4.1 0 0 0-.94 2.72c0 .69.12 1.3.35 1.81.23.52.53.94.9 1.24.37.3.77.56 1.21.78.44.22.89.4 1.34.54.44.14.85.28 1.22.42.37.14.67.3.9.5.23.18.35.42.35.69 0 .25-.08.48-.23.67-.15.2-.37.34-.66.43-.29.1-.63.15-1.03.15-1.3 0-2.7-.34-4.2-1.01a4.48 4.48 0 0 0-1.01 3.3 11.1 11.1 0 0 0 4.37 1.35c-.05.63-.08 1.24-.1 1.83.96.33 1.91.33 2.86 0a79 79 0 0 0-.07-1.9 5.3 5.3 0 0 0 3.2-1.53 4.4 4.4 0 0 0 1.14-3.12c0-.7-.12-1.33-.35-1.86z"/></defs><g><g fill="#cdcdcd" transform="translate(-228 -50)"><use xlink:href="#fhnaa"/></g></g></svg>