<svg xmlns="http://www.w3.org/2000/svg" xmlns:xlink="http://www.w3.org/1999/xlink" width="13" height="17" viewBox="0 0 13 17"><defs><path id="2r63a" d="M257.55 64.64c-1.6 0-2.65-.61-3.15-1.84h3.05c.32-.63.47-1.32.46-2.1h-3.92a9.7 9.7 0 0 1-.02-.69v-.21h4.08a4.1 4.1 0 0 0 .46-2.12h-4.28c.4-1.32 1.35-1.99 2.84-1.99.86 0 1.6.33 2.2.99a3.37 3.37 0 0 0 1.8-2.38 4.44 4.44 0 0 0-1.84-1.75 5.85 5.85 0 0 0-2.74-.63 6.1 6.1 0 0 0-5 2.27c-1.22 1.51-1.84 3.54-1.84 6.09 0 2.57.63 4.57 1.9 5.98 1.26 1.42 3.04 2.13 5.35 2.13 1.65 0 3.09-.33 4.32-.99a4.33 4.33 0 0 0-.91-3.36 6 6 0 0 1-2.76.6z"/></defs><g><g fill="#cdcdcd" transform="translate(-249 -52)"><use xlink:href="#2r63a"/></g></g></svg>