<svg xmlns="http://www.w3.org/2000/svg" xmlns:xlink="http://www.w3.org/1999/xlink" width="47" height="47" viewBox="0 0 47 47"><defs><path id="bq16a" d="M333.5 1299a23.5 23.5 0 1 1-.02 47.02 23.5 23.5 0 0 1 .02-47.02z"/><path id="bq16b" d="M336.17 1325.92v-1.74h7.3v5.22c0 .48-.17.9-.5 1.23-.35.35-.76.51-1.24.51h-15.99c-.47 0-.88-.16-1.22-.5a1.68 1.68 0 0 1-.51-1.24v-5.22h7.3v1.74c0 .19.06.35.2.49s.3.2.5.2h3.47c.19 0 .35-.06.49-.2.13-.14.2-.3.2-.5zm-3.82-1.74h2.78v1.4h-2.78zm11.12-5.23v4.18h-19.46v-4.18c0-.48.17-.89.5-1.23.35-.34.76-.5 1.23-.5h3.83v-1.75a1 1 0 0 1 .3-.74 1 1 0 0 1 .74-.3h6.26a1 1 0 0 1 .74.3c.2.2.3.45.3.74v1.74h3.82c.48 0 .9.17 1.23.51.34.34.51.75.51 1.23zm-6.95-3.13h-5.56v1.4h5.56z"/></defs><g><g transform="translate(-310 -1299)"><use fill="#e31e24" xlink:href="#bq16a"/></g><g transform="translate(-310 -1299)"><use fill="#fff" xlink:href="#bq16b"/></g></g></svg>