<svg xmlns="http://www.w3.org/2000/svg" xmlns:xlink="http://www.w3.org/1999/xlink" width="47" height="47" viewBox="0 0 47 47"><defs><path id="v044a" d="M333.5 1608.97a23.5 23.5 0 1 1-.02 47.02 23.5 23.5 0 0 1 .02-47.02z"/><path id="v044b" d="M343.24 1636c.03.36-.27.61-.61.61h-.1c-.48-.07-.98-.1-1.47-.1-2.96 0-5.6 1.23-6.58 3.08-.1.2-.31.33-.54.33h-.19a.61.61 0 0 1-.54-.33c-.98-1.85-3.62-3.09-6.58-3.09-.5 0-.99.04-1.47.1a.62.62 0 0 1-.52-.16.61.61 0 0 1-.18-.51l.5-4.6 8.89 3.3 8.88-3.36.51 4.73zm2.2-7.62c0 .26-.15.48-.4.57l-10.98 4.11a.63.63 0 0 1-.43 0l-10.03-3.75v6.51h-1.38v-7.43c0-.25.16-.48.4-.57l11-4.12c.15-.05.3-.05.44 0l10.99 4.1c.24.1.4.33.4.58zm-23.48 8.5h1.9l.4 3.8a.62.62 0 0 1-.61.68h-1.48a.62.62 0 0 1-.61-.68z"/></defs><g><g transform="translate(-310 -1609)"><use fill="#e31e24" xlink:href="#v044a"/></g><g transform="translate(-310 -1609)"><use fill="#fff" xlink:href="#v044b"/></g></g></svg>