<svg xmlns="http://www.w3.org/2000/svg" xmlns:xlink="http://www.w3.org/1999/xlink" width="47" height="48" viewBox="0 0 47 48"><defs><path id="sudaa" d="M330.39 1430.63c-.07.41-.12.56-.15.57-2.35 1.1-8.17 1.1-10.51 0-.04-.01-.08-.16-.16-.57 0-.03-.7-3.75 1.64-4.67a5.98 5.98 0 0 0 2.23-1.21l.06.05c.47.46.99.74 1.46.74h.04c.48 0 1-.28 1.47-.74l.05-.05s.66.67 2.24 1.21c2.34.93 1.63 4.64 1.63 4.67zm-2.99-8.63c-.09.34-.2.43-.23.52-.28 1.37-1.2 2.54-2.18 2.54-.99 0-1.96-1.17-2.24-2.54-.02-.09-.14-.18-.23-.52-.1-.35-.11-.68-.03-.78l.02-.03.13-.12s-.23-1.2-.05-1.78c.3-.97 1.38-1.48 1.58-1.56.32-.14.59-.08.59-.08l.22.04c.35.07 2.07.68 2.36 1.6.18.57-.05 1.78-.05 1.78l.12.12.02.03c.1.08.07.43-.03.78z"/><path id="sudab" d="M347.88 1430.63c-.07.41-.11.56-.15.57-2.34 1.1-8.17 1.1-10.5 0-.05-.01-.09-.16-.16-.57 0-.03-.7-3.75 1.63-4.67a5.98 5.98 0 0 0 2.24-1.21l.05.05c.47.46.99.74 1.46.74h.05c.47 0 .99-.28 1.46-.74l.05-.05s.66.67 2.24 1.21c2.34.93 1.63 4.64 1.63 4.67zm-2.98-8.63c-.1.34-.2.43-.23.52-.28 1.37-1.2 2.54-2.19 2.54-.98 0-1.95-1.17-2.23-2.54-.03-.09-.14-.18-.23-.52-.1-.35-.12-.68-.03-.78l.02-.03.12-.12s-.23-1.2-.05-1.78c.3-.97 1.38-1.48 1.58-1.56.32-.14.6-.08.6-.08l.21.04c.35.07 2.07.68 2.36 1.6.18.57-.04 1.78-.04 1.78s-.02 0 .12.12l.02.03c.09.08.06.43-.03.78z"/><path id="sudac" d="M333.5 1402.37a23.5 23.5 0 1 1-.02 47.02 23.5 23.5 0 0 1 .02-47.02z"/><path id="sudaf" d="M342 1433.2c-.11.62-.18.84-.24.86-3.58 1.64-12.48 1.64-16.07 0-.06-.02-.12-.24-.23-.86 0-.04-1.07-5.62 2.5-7 2.41-.8 3.42-1.82 3.42-1.82l.08.08c.72.7 1.51 1.1 2.23 1.1h.07c.73 0 1.52-.4 2.24-1.1l.08-.08s1 1.01 3.42 1.82c3.58 1.4 2.5 6.96 2.5 7zm-4.57-12.94c-.14.51-.31.65-.35.77-.43 2.06-1.83 3.82-3.34 3.82-1.51 0-3-1.76-3.42-3.82-.04-.12-.21-.26-.35-.77-.15-.52-.18-1.02-.05-1.18l.03-.03.19-.18s-.35-1.82-.07-2.68c.47-1.44 2.1-2.21 2.42-2.34.48-.21.9-.12.9-.12l.34.06c.53.1 3.16 1.03 3.6 2.4.28.86-.07 2.68-.07 2.68s-.02 0 .19.18l.03.03c.14.13.1.66-.05 1.18z"/><clipPath id="sudad"><use fill="#fff" xlink:href="#sudaa"/></clipPath><clipPath id="sudae"><use fill="#fff" xlink:href="#sudab"/></clipPath></defs><g><g transform="translate(-310 -1402)"><use fill="#e31e24" xlink:href="#sudac"/></g><g transform="translate(-310 -1402)"><use fill="#fff" fill-opacity="0" stroke="#fff" stroke-miterlimit="50" stroke-width="2" clip-path="url(&quot;#sudad&quot;)" xlink:href="#sudaa"/></g><g transform="translate(-310 -1402)"><use fill="#fff" fill-opacity="0" stroke="#fff" stroke-miterlimit="50" stroke-width="2" clip-path="url(&quot;#sudae&quot;)" xlink:href="#sudab"/></g><g transform="translate(-310 -1402)"><use fill="#fff" xlink:href="#sudaf"/></g></g></svg>