<svg xmlns="http://www.w3.org/2000/svg" xmlns:xlink="http://www.w3.org/1999/xlink" width="47" height="47" viewBox="0 0 47 47"><defs><path id="8xgfa" d="M333.5 1520.97a23.5 23.5 0 1 1-.02 47.02 23.5 23.5 0 0 1 .02-47.02z"/><path id="8xgfb" d="M343 1555h-19c0-1.36.57-2.67 1.58-3.63l.39-.36v-7.95c0-3.38 2.4-6.22 5.66-7.02a2.6 2.6 0 0 1-.88-1.95V1533h5.5v1.1a2.6 2.6 0 0 1-.88 1.94 7.31 7.31 0 0 1 5.66 7.02v7.95l.39.36A4.98 4.98 0 0 1 343 1555zm-7.2-8.1c0-1.02-.7-1.38-1.8-1.67-.76-.2-1.19-.3-1.19-.68 0-.3.25-.46.7-.46a3 3 0 0 1 1.54.53l.57-1.05a4.68 4.68 0 0 0-1.45-.55v-1.11h-1.34v1.14c-.8.22-1.39.8-1.39 1.7 0 .84.5 1.22 1.55 1.53.8.23 1.38.33 1.38.75 0 .26-.22.4-.7.4-.88 0-1.79-.53-1.89-.64l-.58 1.12c.46.29 1.04.5 1.63.6v1.13h1.34v-1.09c.9-.12 1.63-.6 1.63-1.65z"/></defs><g><g transform="translate(-310 -1521)"><use fill="#e31e24" xlink:href="#8xgfa"/></g><g transform="translate(-310 -1521)"><use fill="#fff" xlink:href="#8xgfb"/></g></g></svg>