<svg xmlns="http://www.w3.org/2000/svg" xmlns:xlink="http://www.w3.org/1999/xlink" width="33" height="33" viewBox="0 0 33 33"><defs><path id="v8v3a" d="M1408.18 47.17a16.51 16.51 0 0 1-20.03 2.56l-.03-.02a9.38 9.38 0 0 1-7.02 1.9c-.62-.09-.75-.93-.19-1.2 1.7-.84 2.78-2.5 3.4-3.84l-.17-.14a16.5 16.5 0 1 1 24.04.74zm-6.25-6.37l-1.92-1.92c-.52-.53-1.18-.53-1.7 0l-1.2 1.2c-.1.1-.2.13-.33.06-.26-.15-.54-.26-.78-.41a12.18 12.18 0 0 1-3-2.73 6.9 6.9 0 0 1-1.07-1.71c-.06-.13-.04-.21.06-.32.4-.38.8-.78 1.19-1.18.55-.55.55-1.2 0-1.75l-.94-.94-.97-.97c-.53-.51-1.19-.52-1.71 0l-1.2 1.2c-.38.36-.57.8-.61 1.31-.07.84.14 1.63.43 2.4.6 1.6 1.5 3.01 2.58 4.3a15.94 15.94 0 0 0 5.3 4.16c.93.45 1.9.8 2.94.86.71.03 1.34-.14 1.85-.7.34-.39.72-.73 1.09-1.1.54-.54.54-1.2-.01-1.76zm-3.2-7.46a5.04 5.04 0 0 1 1.42 2.72l1.46-.25a6.52 6.52 0 0 0-5.55-5.37l-.2 1.46c1.09.15 2.08.65 2.87 1.44zm6.72 2.22a10.83 10.83 0 0 0-9.2-8.93l-.2 1.47a9.33 9.33 0 0 1 7.94 7.7z"/></defs><g><g transform="translate(-1380 -19)"><use fill="#e31e24" xlink:href="#v8v3a"/></g></g></svg>