<svg xmlns="http://www.w3.org/2000/svg" xmlns:xlink="http://www.w3.org/1999/xlink" width="52" height="52" viewBox="0 0 52 52"><defs><path id="3lola" d="M362 1739.25v19.5c0 8.97-7.27 16.25-16.25 16.25h-19.49a16.25 16.25 0 0 1-16.25-16.25v-19.5c0-8.97 7.28-16.25 16.25-16.25h19.5c8.97 0 16.24 7.28 16.24 16.25zm-4.87 0c0-6.27-5.1-11.37-11.38-11.37h-19.49c-6.27 0-11.37 5.1-11.37 11.37v19.5c0 6.27 5.1 11.37 11.37 11.37h19.5c6.27 0 11.37-5.1 11.37-11.37zM349 1749a13 13 0 1 1-26 0 13 13 0 0 1 26 0zm-4.87 0a8.13 8.13 0 0 0-16.25 0 8.14 8.14 0 0 0 8.13 8.13 8.14 8.14 0 0 0 8.12-8.13zm5.85-15.7a1.73 1.73 0 1 1 0 3.46 1.73 1.73 0 0 1 0-3.47z"/></defs><g><g transform="translate(-310 -1723)"><use fill="#e30613" xlink:href="#3lola"/></g></g></svg>