<svg xmlns="http://www.w3.org/2000/svg" xmlns:xlink="http://www.w3.org/1999/xlink" width="21" height="14" viewBox="0 0 21 14"><defs><path id="c7naa" d="M1019 8689.44v13.12c0 .24-.21.44-.48.44h-20.04c-.27 0-.48-.2-.48-.44v-13.12c0-.24.21-.44.48-.44h20.04c.27 0 .48.2.48.44zm-20.05 11.63l5.92-5.42-5.92-5.42zm6.6-4.8l-6.4 5.85h18.7l-6.4-5.85.36-.33-2.97 2.73a.5.5 0 0 1-.68 0l-2.92-2.68zm12.5 4.8v-10.84l-5.92 5.42zm-9.55-3.33l8.58-7.87h-17.16z"/></defs><g><g opacity=".25" transform="translate(-998 -8689)"><use xlink:href="#c7naa"/></g></g></svg>