<svg xmlns="http://www.w3.org/2000/svg" xmlns:xlink="http://www.w3.org/1999/xlink" width="40" height="40" viewBox="0 0 40 40"><defs><path id="sliwa" d="M566.68 6451.34l.13.14a.98.98 0 1 1-1.38 1.38l-.13-.13a.98.98 0 1 1 1.38-1.39zm-5.94-12.16v-5.28c0-2 1.62-3.62 3.62-3.62h5.28c2 0 3.62 1.62 3.62 3.62v5.28c0 2-1.62 3.62-3.62 3.62h-5.28c-2 0-3.62-1.62-3.62-3.62zm1.95 0c0 .92.75 1.67 1.67 1.67h5.28c.92 0 1.67-.75 1.67-1.67v-5.28c0-.92-.75-1.67-1.67-1.67h-5.28c-.92 0-1.67.75-1.67 1.67zm5.56 11.78a.98.98 0 1 1 1.38-1.38l.13.13a.98.98 0 1 1-1.38 1.38zm12.17-13.58l.13.13a.98.98 0 1 1-1.38 1.38l-.13-.13a.98.98 0 0 1 1.38-1.38zm1.57-.38a.98.98 0 0 1 1.38-1.39l.13.13a.98.98 0 0 1-1.38 1.39zm-7.52-.46a6.27 6.27 0 1 1 12.55.01 6.27 6.27 0 0 1-12.55-.01zm1.96 0a4.31 4.31 0 1 0 8.62 0 4.31 4.31 0 0 0-8.62 0zm2.3-.92a.98.98 0 0 1 .01-1.38l.13-.13a.98.98 0 1 1 1.38 1.38l-.13.13a.97.97 0 0 1-1.38 0zm-14.52.92a2.8 2.8 0 1 1 5.59 0 2.8 2.8 0 0 1-5.6 0zm1.95 0a.84.84 0 1 0 1.68 0 .84.84 0 0 0-1.68 0zm-12 5.23l.93-17.84a.98.98 0 0 1 1.95.1l-.93 17.85a.98.98 0 0 1-.97.92h-.05a.98.98 0 0 1-.93-1.03zm28.08 20.25c0 .54-.43.98-.97.98h-4.76a.98.98 0 0 1 0-1.96h4.76c.54 0 .97.44.97.98zm4.76-2.78c0 .55-.44.98-.98.98h-38.04a.98.98 0 0 1 0-1.95h38.04c.54 0 .98.44.98.97zm0-11.38v5.29c0 2-1.62 3.62-3.62 3.62h-5.29c-2 0-3.62-1.63-3.62-3.62v-5.29c0-2 1.63-3.62 3.62-3.62h5.29c2 0 3.62 1.63 3.62 3.62zm-1.95 0c0-.92-.75-1.66-1.67-1.66h-5.29c-.91 0-1.66.74-1.66 1.66v5.29c0 .92.75 1.66 1.66 1.66h5.29c.92 0 1.67-.74 1.67-1.66zM565 6449.6a.98.98 0 0 1 0-1.39l.13-.13a.98.98 0 1 1 1.39 1.38l-.13.14a.97.97 0 0 1-1.39 0zm18.53.92a2.8 2.8 0 1 1-5.6-.01 2.8 2.8 0 0 1 5.6 0zm-1.96 0a.84.84 0 0 0-1.67 0 .84.84 0 0 0 1.67 0zm-23.1 11.51c0 .54-.44.98-.98.98h-4.76a.98.98 0 0 1 0-1.96h4.76c.54 0 .98.44.98.98zm-8.99-38a.98.98 0 0 1 1.96-.1l.92 17.85c.03.54-.38 1-.92 1.03h-.05a.98.98 0 0 1-.98-.92zm11.26 26.49a6.27 6.27 0 1 1 12.54 0 6.27 6.27 0 0 1-12.54 0zm1.95 0a4.31 4.31 0 1 0 8.63-.02 4.31 4.31 0 0 0-8.63.02zm-15.69 2.64v-5.29c0-2 1.62-3.62 3.62-3.62h5.29c2 0 3.62 1.63 3.62 3.62v5.29c0 2-1.63 3.62-3.62 3.62h-5.29c-2 0-3.62-1.63-3.62-3.62zm1.95 0c0 .92.75 1.66 1.67 1.66h5.29c.91 0 1.66-.74 1.66-1.66v-5.29c0-.92-.75-1.66-1.66-1.66h-5.29c-.92 0-1.66.74-1.66 1.66v5.29zm1.52-2.64a2.8 2.8 0 1 1 5.6 0 2.8 2.8 0 0 1-5.6 0zm1.96 0a.84.84 0 1 0 1.67 0 .84.84 0 0 0-1.67 0z"/></defs><g><g transform="translate(-547 -6423)"><use fill="#e30613" xlink:href="#sliwa"/></g></g></svg>