<svg xmlns="http://www.w3.org/2000/svg" xmlns:xlink="http://www.w3.org/1999/xlink" width="39" height="45" viewBox="0 0 39 45"><defs><path id="vsj0a" d="M933 6468.24c0 .42-.32.76-.72.76h-37.56a.74.74 0 0 1-.72-.76c0-.42.32-.76.72-.76h1.2v-28.56c0-.42.33-.76.73-.76h6.02v-6.32c0-.42.32-.76.72-.76h2.17v-3.29c0-.42.32-.76.72-.76h3.13v-2.27c0-.42.32-.76.72-.76.4 0 .72.34.72.76v2.27h3.13c.4 0 .72.34.72.76v3.29h1.45v-3.29c0-.42.32-.76.72-.76h13.48c.4 0 .72.34.72.76v39.7h1.2c.4 0 .73.33.73.75zm-26-37.16h6.26v-2.53H907zm-2.4 33.88h-2.41v2.52h.48v-1.26c0-.42.32-.76.72-.76.4 0 .72.34.72.76v1.26h.48zm4.8-25.29h-12.03v27.81h3.37v-3.28c0-.42.32-.76.72-.76h3.85c.4 0 .73.34.73.76v3.28h3.37zm1.45-.75v.25h2.17c.4 0 .72.34.72.76s-.32.76-.72.76h-2.17v2.52h2.17c.4 0 .72.34.72.76s-.32.76-.72.76h-2.17v2.53h5.3v-14.66H904.1v5.56h6.02c.4 0 .72.34.72.76zm12.04 9.85h-12.04v18.71h12.04zm6.74 18.71v-38.93h-12.04v18.7H920v-.24c0-.42.32-.76.72-.76.4 0 .72.34.72.76v.25h1.45v-.25c0-.42.32-.76.72-.76.4 0 .72.34.72.76v20.47zm-16.37-2.27v-14.16c0-.42.32-.76.72-.76.4 0 .72.34.72.76v14.16c0 .42-.32.76-.72.76a.74.74 0 0 1-.72-.76zm2.89 0v-14.16c0-.42.32-.76.72-.76.4 0 .72.34.72.76v14.16c0 .42-.32.76-.72.76a.74.74 0 0 1-.72-.76zm2.89 0v-14.16c0-.42.32-.76.72-.76.4 0 .72.34.72.76v14.16c0 .42-.32.76-.72.76a.74.74 0 0 1-.72-.76zm.96-32.36v-1.01c0-.42.32-.76.72-.76.4 0 .72.34.72.76v1c0 .43-.32.77-.72.77a.74.74 0 0 1-.72-.76zm2.89 0v-1.01c0-.42.32-.76.72-.76.4 0 .72.34.72.76v1c0 .43-.32.77-.72.77a.74.74 0 0 1-.72-.76zm2.89 0v-1.01c0-.42.32-.76.72-.76.4 0 .72.34.72.76v1c0 .43-.32.77-.72.77a.74.74 0 0 1-.72-.76zm-5.78 5.05v-1c0-.43.32-.76.72-.76.4 0 .72.33.72.75v1.01c0 .42-.32.76-.72.76a.74.74 0 0 1-.72-.76zm2.89 0v-1c0-.43.32-.76.72-.76.4 0 .72.33.72.75v1.01c0 .42-.32.76-.72.76a.74.74 0 0 1-.72-.76zm2.89 0v-1c0-.43.32-.76.72-.76.4 0 .72.33.72.75v1.01c0 .42-.32.76-.72.76a.74.74 0 0 1-.72-.76zm-5.78 5.06v-1.01c0-.42.32-.76.72-.76.4 0 .72.34.72.76v1.01c0 .42-.32.76-.72.76a.74.74 0 0 1-.72-.76zm2.89 0v-1.01c0-.42.32-.76.72-.76.4 0 .72.34.72.76v1.01c0 .42-.32.76-.72.76a.74.74 0 0 1-.72-.76zm2.89 0v-1.01c0-.42.32-.76.72-.76.4 0 .72.34.72.76v1.01c0 .42-.32.76-.72.76a.74.74 0 0 1-.72-.76zm-26 2.02v-1c0-.43.32-.77.72-.77.4 0 .72.34.72.76v1.01c0 .42-.32.76-.72.76a.74.74 0 0 1-.72-.76zm2.89 0v-1c0-.43.32-.77.72-.77.4 0 .72.34.72.76v1.01c0 .42-.32.76-.72.76a.74.74 0 0 1-.72-.76zm2.89 0v-1c0-.43.32-.77.72-.77.4 0 .72.34.72.76v1.01c0 .42-.32.76-.72.76a.74.74 0 0 1-.72-.76zm-5.78 5.06v-1.01c0-.42.32-.76.72-.76.4 0 .72.34.72.76v1.01c0 .42-.32.76-.72.76a.74.74 0 0 1-.72-.76zm2.89 0v-1.01c0-.42.32-.76.72-.76.4 0 .72.34.72.76v1.01c0 .42-.32.76-.72.76a.74.74 0 0 1-.72-.76zm2.89 0v-1.01c0-.42.32-.76.72-.76.4 0 .72.34.72.76v1.01c0 .42-.32.76-.72.76a.74.74 0 0 1-.72-.76zm-5.78 5.06v-1.02c0-.41.32-.75.72-.75.4 0 .72.34.72.75v1.02c0 .41-.32.75-.72.75a.74.74 0 0 1-.72-.75zm2.89 0v-1.02c0-.41.32-.75.72-.75.4 0 .72.34.72.75v1.02c0 .41-.32.75-.72.75a.74.74 0 0 1-.72-.75zm2.89 0v-1.02c0-.41.32-.75.72-.75.4 0 .72.34.72.75v1.02c0 .41-.32.75-.72.75a.74.74 0 0 1-.72-.75zm-5.78 5.05v-1c0-.43.32-.77.72-.77.4 0 .72.34.72.76v1.01c0 .42-.32.76-.72.76a.74.74 0 0 1-.72-.76zm2.89 0v-1c0-.43.32-.77.72-.77.4 0 .72.34.72.76v1.01c0 .42-.32.76-.72.76a.74.74 0 0 1-.72-.76zm2.89 0v-1c0-.43.32-.77.72-.77.4 0 .72.34.72.76v1.01c0 .42-.32.76-.72.76a.74.74 0 0 1-.72-.76zm20.22-12.13V6447c0-.42.32-.76.72-.76.4 0 .72.34.72.76v1c0 .43-.32.76-.72.76a.74.74 0 0 1-.72-.75zm0 5.05v-1c0-.43.32-.77.72-.77.4 0 .72.34.72.76v1.01c0 .42-.32.76-.72.76a.74.74 0 0 1-.72-.76zm0 5.06v-1.01c0-.42.32-.76.72-.76.4 0 .72.34.72.76v1c0 .43-.32.77-.72.77a.74.74 0 0 1-.72-.76zm0 5.06v-1.01c0-.42.32-.76.72-.76.4 0 .72.34.72.76v1c0 .42-.32.76-.72.76a.74.74 0 0 1-.72-.75zm-12.76-26.55h-5.78a.74.74 0 0 1-.72-.76c0-.42.32-.76.72-.76h5.78c.4 0 .72.34.72.76s-.32.76-.72.76z"/></defs><g><g transform="translate(-894 -6424)"><use fill="#e30613" xlink:href="#vsj0a"/></g></g></svg>