<svg xmlns="http://www.w3.org/2000/svg" xmlns:xlink="http://www.w3.org/1999/xlink" width="45" height="45" viewBox="0 0 45 45"><defs><path id="seq3a" d="M1278 6446.5a22.5 22.5 0 1 1-43.35-8.44l-.1-.32.27-.1a22.5 22.5 0 0 1 43.18 8.86zm-3.87-9.67l-4.15 1.38a.73.73 0 0 1-.36.03l-4.5-.75a.75.75 0 0 1-.5-.32l-1.27-1.92h-3.79l-1.76 1.76.63 4.47 4.63 1.98 2.76-.69c.2-.05.42-.01.6.1l2.25 1.5c.2.15.33.38.33.63v2.82l2.92 5.84c.05.1.08.22.08.34v2.69l1.15 1.15a20.93 20.93 0 0 0 .98-21.01zm-8.95-8.96l-2.6 1.3a.76.76 0 0 1-.33.08h-2.54l-.9 1.81 1.22.41 2.79-.7a.73.73 0 0 1 .42.02l2.2.73 3.4.69 1.22-.82a21.11 21.11 0 0 0-4.88-3.52zm-28.93 10.25l1.13 3.4 3.12 2.08v-1.29l-1.28-1.28a.75.75 0 0 1-.22-.53v-2.25c0-.37.28-.69.65-.74l5.1-.73 3.46-2.08 2.15-3.58c.1-.16.24-.27.4-.33l1.9-.63.35-1.06-3.63-.6a.75.75 0 0 1-.3-.12l-1.8-1.2a21.12 21.12 0 0 0-11.03 10.94zm9.5 14.38v7.36l1.32 3.29.93.3v-2.7c0-.24.11-.46.3-.6l2.7-2.03v-1.87c0-.2.08-.39.22-.53l2.84-2.84.53-2.63h-2.09a.75.75 0 0 1-.64-.36l-2.03-3.39H1245a.75.75 0 0 1-.67-.41l-1.03-2.07-2.8 2.8v1.75l1.26 2.52 3.4.68c.34.07.6.37.6.73zm26.54 6.6l-1.57-1.57a.75.75 0 0 1-.22-.53v-2.82l-2.93-5.84a.76.76 0 0 1-.07-.34v-2.6l-1.64-1.1-2.68.68a.73.73 0 0 1-.47-.04l-5.25-2.25a.75.75 0 0 1-.45-.58l-.75-5.25a.75.75 0 0 1 .21-.64l2.25-2.25a.75.75 0 0 1 .53-.22h4.5c.25 0 .48.13.62.33l1.32 1.98 4 .67 3.68-1.23a21.13 21.13 0 0 0-2.25-3.01l-1.7 1.13a.74.74 0 0 1-.57.12l-3.75-.75a.53.53 0 0 1-.1-.03l-2.03-.68-2.8.7a.76.76 0 0 1-.41-.02l-2.25-.75a.75.75 0 0 1-.43-1.05l1.5-3a.75.75 0 0 1 .67-.4h2.82l1.37-.7a20.93 20.93 0 0 0-14.42-.53l.76.5 4.34.73.12.03c.39.13.6.56.47.95l-.75 2.25a.75.75 0 0 1-.47.47l-1.99.66-2.1 3.52c-.07.1-.16.19-.26.25l-3.75 2.25a.75.75 0 0 1-.28.1l-4.6.66v1.29l1.27 1.28c.14.14.22.33.22.53v1.19l.98-.97a.75.75 0 0 1 1.2.2l1.29 2.58h4.78c.27 0 .51.14.65.36l2.03 3.39h2.57l.15.01c.4.09.67.48.59.89l-.75 3.75a.75.75 0 0 1-.2.38l-2.79 2.78v1.94c0 .24-.1.46-.3.6l-2.7 2.03v3.37a.75.75 0 0 1-.98.71l-2.25-.75a.75.75 0 0 1-.46-.43l-1.5-3.75a.76.76 0 0 1-.05-.28v-6.89l-3.15-.63a.75.75 0 0 1-.53-.4l-1.5-3a.74.74 0 0 1-.08-.33v-2.25c0-.2.08-.39.22-.53l.86-.85-3.74-2.5a.75.75 0 0 1-.3-.38l-.62-1.87a21 21 0 0 0 36.87 18.73z"/></defs><g><g transform="translate(-1233 -6424)"><use fill="#e30613" xlink:href="#seq3a"/></g></g></svg>