<svg xmlns="http://www.w3.org/2000/svg" xmlns:xlink="http://www.w3.org/1999/xlink" width="20" height="20" viewBox="0 0 20 20"><defs><path id="s9jma" d="M1199 2673a10 10 0 1 1 0 20 10 10 0 0 1 0-20z"/><path id="s9jmc" d="M1198.55 2684.8a1.5 1.5 0 0 1-.46-1.11c0-.37.1-.69.32-.97.22-.29.46-.51.72-.67.26-.16.5-.35.72-.57a1 1 0 0 0 .32-.7c0-.27-.1-.5-.31-.68a1.37 1.37 0 0 0-.92-.27c-.7 0-1.3.31-1.8.93l-.87-1c.7-.86 1.64-1.3 2.83-1.3.8 0 1.44.2 1.92.58.47.39.7.89.7 1.5 0 .35-.07.68-.23.96-.16.29-.36.52-.58.7l-.68.51c-.23.16-.42.33-.58.52a.92.92 0 0 0-.24.6c0 .23.1.43.28.6zm1.11 2.47a.86.86 0 0 1-.64.27.86.86 0 0 1-.64-.27.9.9 0 0 1-.27-.66.9.9 0 0 1 .27-.65c.18-.18.39-.27.64-.27s.46.1.64.27c.18.18.27.4.27.65a.9.9 0 0 1-.27.66z"/><clipPath id="s9jmb"><use fill="#fff" xlink:href="#s9jma"/></clipPath></defs><g><g transform="translate(-1189 -2673)"><use fill="#fff" fill-opacity="0" stroke="#8e8e8e" stroke-miterlimit="50" stroke-width="2" clip-path="url(&quot;#s9jmb&quot;)" xlink:href="#s9jma"/></g><g transform="translate(-1189 -2673)"><use fill="#3e3e3e" xlink:href="#s9jmc"/></g></g></svg>