<svg xmlns="http://www.w3.org/2000/svg" xmlns:xlink="http://www.w3.org/1999/xlink" width="14" height="18" viewBox="0 0 14 18"><defs><path id="m7ena" d="M210.48 67.5c-1.4.36-2.82.36-4.22 0V66H205a1 1 0 0 1 0-2h1.26V52c1.6-.77 3.41-1.16 5.45-1.16 1.95 0 3.46.5 4.53 1.51 1.07 1.01 1.6 2.44 1.6 4.27 0 1.86-.47 3.3-1.42 4.33-.95 1.02-2.3 1.53-4.02 1.53-.75 0-1.4-.08-1.92-.24V64H213a1 1 0 0 1 0 2h-2.52zm-.07-8.83c.35.1.77.14 1.25.14 1.4 0 2.1-.78 2.1-2.35 0-1.44-.63-2.16-1.91-2.16-.5 0-.98.08-1.44.24z"/></defs><g><g fill="#cdcdcd" transform="translate(-204 -50)"><use xlink:href="#m7ena"/></g></g></svg>