<svg xmlns="http://www.w3.org/2000/svg" xmlns:xlink="http://www.w3.org/1999/xlink" width="19" height="23" viewBox="0 0 19 23"><defs><path id="ayoma" d="M845 578.24v-2.52h-1.72v-2.53h1.71v-17.01h8.66c2.55 0 4.58.67 6.08 2.01a6.9 6.9 0 0 1 2.26 5.42c0 2.38-.83 4.23-2.5 5.55a9.77 9.77 0 0 1-6.28 1.99h-4.36v2.04h6.37v2.53h-6.37v2.52zm3.85-10.6h4.48c1.45 0 2.6-.36 3.45-1.1a3.64 3.64 0 0 0 1.29-2.9c0-1.26-.42-2.23-1.27-2.91-.85-.68-2-1.03-3.47-1.03h-4.48z"/></defs><g><g transform="translate(-843 -556)"><use fill="#fff" xlink:href="#ayoma"/></g></g></svg>