<svg xmlns="http://www.w3.org/2000/svg" xmlns:xlink="http://www.w3.org/1999/xlink" width="72" height="72" viewBox="0 0 72 72"><defs><path id="f0wya" d="M346.52 10323.56a35.59 35.59 0 0 1 35.51 35.66c0 19.7-15.9 35.66-35.51 35.66a35.59 35.59 0 0 1-35.52-35.66c0-19.7 15.9-35.66 35.52-35.66z"/><path id="f0wyb" d="M361 10350.5v23.35c0 1.13-.92 2.15-2.18 2.15h-23.64a2.24 2.24 0 0 1-2.18-2.15v-29.7a2.24 2.24 0 0 1 2.18-2.15h17.21c.35 0 .58.11.8.34l7.27 7.17c.34.19.54.54.54 1zm-7.46-1.7c0 .34.23.57.57.57h2.99l-3.56-3.52zm5.16 24.93v-22.1h-4.59a2.98 2.98 0 0 1-2.86-2.83v-4.53H335.3v29.46zm-1.95-11.56c0 .68-.57 1.14-1.14 1.14h-10.68c-.68 0-1.14-.46-1.14-1.14 0-.68.46-1.13 1.14-1.13h10.68c.68 0 1.14.45 1.14 1.13zm0-5.32c0 .68-.57 1.13-1.14 1.13h-10.68c-.68 0-1.14-.45-1.14-1.13 0-.68.46-1.14 1.14-1.14h10.68c.68 0 1.14.46 1.14 1.14zm0 10.65c0 .68-.57 1.13-1.14 1.13h-10.68c-.68 0-1.14-.45-1.14-1.13 0-.68.46-1.13 1.14-1.13h10.68c.68 0 1.14.45 1.14 1.13zm-14.11-12.01l-2.3 2.26c-.22.23-.57.34-.8.34-.34 0-.57-.11-.8-.34l-1.03-1.02a1.09 1.09 0 0 1 0-1.58 1.12 1.12 0 0 1 1.6 0l.23.22 1.5-1.47a1.12 1.12 0 0 1 1.6 0c.46.45.46 1.13 0 1.59zm0 5.21l-2.3 2.27c-.22.22-.57.34-.8.34-.34 0-.57-.12-.8-.34l-1.03-1.02a1.09 1.09 0 0 1 0-1.59 1.12 1.12 0 0 1 1.6 0l.23.23 1.5-1.48a1.12 1.12 0 0 1 1.6 0c.46.46.46 1.14 0 1.59zm0 5.21l-2.3 2.27c-.23.23-.57.34-.8.34-.34 0-.57-.11-.8-.34l-1.03-1.02a1.09 1.09 0 0 1 0-1.59 1.12 1.12 0 0 1 1.6 0l.23.23 1.5-1.47a1.12 1.12 0 0 1 1.6 0c.46.45.46 1.13 0 1.58z"/></defs><g><g transform="translate(-311 -10323)"><use fill="#e31e24" xlink:href="#f0wya"/></g><g transform="translate(-311 -10323)"><use fill="#fff" xlink:href="#f0wyb"/></g></g></svg>