<svg xmlns="http://www.w3.org/2000/svg" xmlns:xlink="http://www.w3.org/1999/xlink" width="72" height="72" viewBox="0 0 72 72"><defs><path id="zodea" d="M346.52 10485.56a35.59 35.59 0 0 1 35.51 35.66c0 19.7-15.9 35.65-35.51 35.65a35.59 35.59 0 0 1-35.52-35.65c0-19.7 15.9-35.66 35.52-35.66z"/><path id="zodeb" d="M358 10514.6v12.8c0 5.33-4.25 9.6-9.57 9.6h-2.86a9.54 9.54 0 0 1-9.57-9.6v-12.8c0-5.33 4.25-9.6 9.57-9.6h2.86a9.54 9.54 0 0 1 9.57 9.6zm-2.13 12.8v-6.3h-17.74v6.3a7.4 7.4 0 0 0 7.44 7.47h2.86a7.4 7.4 0 0 0 7.44-7.47zm0-8.43v-4.37a7.4 7.4 0 0 0-7.44-7.47h-2.86a7.4 7.4 0 0 0-7.44 7.47v4.37zm-7.75-7.89v3.95c0 .64-.54 1.06-1.07 1.06-.63 0-1.06-.42-1.06-1.06v-3.95c0-.64.43-1.07 1.06-1.07.64 0 1.07.43 1.07 1.07z"/></defs><g><g transform="translate(-311 -10485)"><use fill="#e31e24" xlink:href="#zodea"/></g><g transform="translate(-311 -10485)"><use fill="#fff" xlink:href="#zodeb"/></g></g></svg>