<svg xmlns="http://www.w3.org/2000/svg" xmlns:xlink="http://www.w3.org/1999/xlink" width="119" height="119" viewBox="0 0 119 119"><defs><path id="cgvca" d="M238 955.5a59.5 59.5 0 0 1 119 0 59.5 59.5 0 0 1-119 0z"/><path id="cgvcc" d="M340 968.31v2.95a2.85 2.85 0 0 1-2.85 2.85h-1.56v4.51c0 .76-.61 1.38-1.37 1.38h-5.88c-.76 0-1.37-.62-1.37-1.38v-4.5h-2.2l-.72 3.59a2.86 2.86 0 0 1-2.79 2.29h-18.15a2.86 2.86 0 0 1-2.79-2.3l-.72-3.59h-31.57v4.51c0 .76-.61 1.38-1.37 1.38h-5.88c-.76 0-1.37-.62-1.37-1.38v-4.5h-1.56a2.85 2.85 0 0 1-2.85-2.86v-2.95a2.85 2.85 0 0 1 2.85-2.85h6.26a4.32 4.32 0 0 1-.3-1.56v-14.72a4.32 4.32 0 0 1 4.32-4.33h3.86l-5.22-32.26a1.38 1.38 0 1 1 2.72-.44l5.29 32.7h4.32l5.3-32.7a1.38 1.38 0 1 1 2.71.44l-5.22 32.26h.92a4.32 4.32 0 0 1 3.97 2.63 13.11 13.11 0 0 1 21.44 0 4.32 4.32 0 0 1 3.97-2.63h14.68a4.32 4.32 0 0 1 4.32 4.33v14.72c0 .55-.1 1.08-.3 1.56h6.26a2.85 2.85 0 0 1 2.85 2.85zm-29.37-4.41c0 .86.7 1.56 1.56 1.56h14.68c.86 0 1.56-.7 1.56-1.56v-14.72c0-.87-.7-1.57-1.56-1.57H312.2c-.86 0-1.56.7-1.56 1.57zm-2.76 0v-.79c-.68.88-1.46 1.67-2.34 2.35h2.64a4.32 4.32 0 0 1-.3-1.56zm-20.74-8.84a10.4 10.4 0 0 0 10.37 10.4 10.4 10.4 0 0 0 0-20.8 10.4 10.4 0 0 0-10.37 10.4zm-.3 10.4h2.64a13.33 13.33 0 0 1-2.34-2.35v.79c0 .55-.1 1.08-.3 1.56zm-11.6-17.85l.5 3.13h2.68a2.85 2.85 0 0 1 2.84 2.85v5.9a2.85 2.85 0 0 1-2.84 2.84h-.8l.5 3.13h4.7c.86 0 1.56-.7 1.56-1.56v-14.72c0-.87-.7-1.57-1.56-1.57zm3.18 11.96a.1.1 0 0 0 .09-.09v-5.89a.1.1 0 0 0-.1-.09h-2.22l.98 6.07zm-5.02-6.07h-.86a.1.1 0 0 0-.09.1v5.88c0 .05.04.1.1.1h1.83zm-6.82 10.4c0 .86.7 1.56 1.56 1.56h7.19l-.5-3.13h-2.29a2.85 2.85 0 0 1-2.84-2.85v-5.89a2.85 2.85 0 0 1 2.84-2.85h.4l-.5-3.13h-4.3c-.86 0-1.56.7-1.56 1.57zm-1.29 10.21h-3.12v3.13h3.12zm56.98-1.47h-20.14l.9 4.53c0 .04.05.07.09.07h18.15c.05 0 .09-.03.1-.07zm10.58 1.47h-3.12v3.13h3.12zm4.4-5.8a.1.1 0 0 0-.09-.09h-79.3a.1.1 0 0 0-.1.1v2.94c0 .05.04.1.1.1h41.21a1.38 1.38 0 0 1 1.37-1.47h23.5a1.38 1.38 0 0 1 1.38 1.46h11.84a.1.1 0 0 0 .1-.1zm-23.5-8.83v-5.89a2.85 2.85 0 0 1 2.85-2.85h5.88a2.85 2.85 0 0 1 2.84 2.85v5.9a2.85 2.85 0 0 1-2.84 2.84h-5.88a2.85 2.85 0 0 1-2.84-2.85zm2.76 0c0 .05.04.1.1.1h4.01l-.58-.6a1.38 1.38 0 0 1 1.94-1.95l.59.6v-4.04a.1.1 0 0 0-.1-.09h-4.01l.59.59a1.38 1.38 0 0 1-.98 2.36c-.35 0-.7-.14-.97-.4l-.59-.6zm-26.25-4.42c0-4 3.25-7.26 7.25-7.26a7.27 7.27 0 0 1 0 14.53c-4 0-7.25-3.26-7.25-7.27zm2.75 0a4.5 4.5 0 0 0 6.55 4.01l-.09-.09a1.38 1.38 0 0 1 1.95-1.95l.09.1a4.5 4.5 0 0 0-6.05-6.06l.09.07a1.38 1.38 0 0 1-.98 2.36c-.35 0-.7-.13-.97-.4l-.09-.1a4.5 4.5 0 0 0-.5 2.06z"/><clipPath id="cgvcb"><use fill="#fff" xlink:href="#cgvca"/></clipPath></defs><g><g transform="translate(-238 -896)"><use fill="#fff" xlink:href="#cgvca"/><use fill="#fff" fill-opacity="0" stroke="#e6e6e6" stroke-miterlimit="50" stroke-width="2" clip-path="url(&quot;#cgvcb&quot;)" xlink:href="#cgvca"/></g><g transform="translate(-238 -896)"><use fill="#e31e24" xlink:href="#cgvcc"/></g></g></svg>