<svg xmlns="http://www.w3.org/2000/svg" xmlns:xlink="http://www.w3.org/1999/xlink" width="78" height="78" viewBox="0 0 78 78"><defs><path id="xewma" d="M767 964a39 39 0 1 1 78 0 39 39 0 1 1-78 0z"/><path id="xewmc" d="M827 976.74a.66.66 0 0 1-.24.44l-.96.78c-.82.66-1.7 1.23-2.62 1.7v6.7c0 .36-.3.65-.66.65h-33.04a.66.66 0 0 1-.65-.66v-6.7c-.93-.46-1.8-1.03-2.62-1.7l-.96-.77a.66.66 0 0 1-.1-.93l1.88-2.36c.1-.14.26-.23.44-.24.17-.02.34.03.48.14l.96.78c.48.38.98.73 1.51 1.02l1.7-1.58v-5.73a21.27 21.27 0 0 1-3.44-2.41.67.67 0 0 1-.1-.93l1.88-2.36a.66.66 0 0 1 .92-.1l.96.78c.28.22.56.42.85.62l1.69-1.57v-5.48a15.2 15.2 0 0 1-2.23-1.5l-.96-.77a.66.66 0 0 1-.1-.93l1.88-2.36a.65.65 0 0 1 .92-.1l.96.78c.6.49 1.26.9 1.94 1.25l2.13-2.45v-2.12a9.98 9.98 0 0 1-.79-.58l-.65-.53a.66.66 0 0 1-.1-.92l1.27-1.6a.65.65 0 0 1 .92-.1l.65.53a7.23 7.23 0 0 0 3.32 1.49c.19-2.32.2-4.24.2-4.26 0-.36.29-.66.65-.66h2.23c.36 0 .65.3.65.66 0 .97.05 2.55.2 4.26a7.23 7.23 0 0 0 3.32-1.5l.65-.52c.27-.22.7-.18.92.1l1.26 1.6c.23.28.19.7-.1.92l-.65.53c-.25.2-.52.4-.79.58v2.12l2.13 2.46c.7-.35 1.34-.77 1.95-1.26l.96-.78c.28-.23.7-.18.92.1l1.88 2.36a.66.66 0 0 1-.1.93l-.96.78c-.7.57-1.45 1.07-2.23 1.5v5.47l1.69 1.57c.29-.2.57-.4.84-.62l.97-.78c.28-.23.69-.18.92.1l1.88 2.36a.66.66 0 0 1-.1.93l-.97.78a15.1 15.1 0 0 1-2.48 1.63V974l1.7 1.58c.53-.3 1.04-.64 1.52-1.02l.96-.78c.28-.23.7-.19.92.1l1.88 2.36c.11.14.16.31.14.49zm-15.56-25.31a.66.66 0 0 1-.17-.44v-1.62c-.9.43-1.88.73-2.89.88h-.01c.25 1.53.68 3.27 1.33 4.12h.12c1.22 0 2.46-.21 3.62-.62zm-3.35-3.2l.09.72.18-.03a9.47 9.47 0 0 0 4.33-2.01l-.45-.57-.13.12a8.37 8.37 0 0 1-4.02 1.77zm-4.26 6.14h4.35c-.5-1.03-.9-2.52-1.2-4.5a60.14 60.14 0 0 1-.5-6.55h-.95a60.1 60.1 0 0 1-.5 6.49c-.3 2.01-.69 3.52-1.2 4.56zm-4.38-7.35a9.15 9.15 0 0 0 4.2 1.9l.18.03.09-.72a8.37 8.37 0 0 1-4.02-1.77l-.14-.12-.45.57zm-.89 6.73c1.17.4 2.4.62 3.63.62h.11c.33-.43.78-1.33 1.16-3.17l.16-.83.02-.11h-.01c-1.01-.16-1.98-.46-2.9-.9V951c0 .15-.06.3-.16.43zm3.63 3.65h7.63c.56 0 1.13-.03 1.7-.1.36-.05.69.2.73.57.05.35-.21.69-.57.73-.62.08-1.25.12-1.86.12h-7.63a15.1 15.1 0 0 1-6-1.25v4.47h6.3v-1.7c0-.37.3-.66.66-.66h5.7c.37 0 .66.3.66.66v1.7h6.31v-4.47c-.54.24-1.1.44-1.66.61a.66.66 0 0 1-.37-1.26 13.9 13.9 0 0 0 2.39-.97h.01c1.02-.5 1.92-1.2 2.8-1.9l-1.06-1.34a13.96 13.96 0 0 1-3.73 2.26c-1.55.6-3.14.82-4.79.82h-6.81a13.9 13.9 0 0 1-3.04-.3 13.26 13.26 0 0 1-5.48-2.78l-1.06 1.33a14.49 14.49 0 0 0 9.17 3.46zm1.61 3.5v1.04h4.4v-1.04zm-9.42 3.66h.01a11 11 0 0 0 4.8 1.12h13.63a10.87 10.87 0 0 0 4.8-1.12l-1.4-1.3h-20.43zm4.36 4.14h14.44a13.93 13.93 0 0 0 8.82-3.45l-1.07-1.33c-.6.5-1.23.95-1.88 1.37l-.04.01a12.26 12.26 0 0 1-6.19 1.7h-13.64c-3.04 0-5.77-1.19-8.1-3.08l-1.07 1.33.45.37a14 14 0 0 0 8.28 3.08zm12.06 2.9v2.04h7.77v-4.75a15.21 15.21 0 0 1-5.75 1.14h-13.64a15.27 15.27 0 0 1-5.75-1.14v4.75h7.78v-2.04c0-.36.29-.66.65-.66h8.29c.36 0 .65.3.65.66zm-8.29.66v1.38h6.98v-1.38zm-10.01 8.72a15.36 15.36 0 0 1-2.36-.72v5.43h2.36zm25.7.23c-.64.08-1.3.13-1.94.13h-20.51c-.5 0-1.79-.1-1.95-.13v4.48h24.4zm3.67-.95c-.76.3-1.56.54-2.36.72v4.71h2.36zm3.56-3.7l-1.06-1.33a12.8 12.8 0 0 1-8.11 3.08h-19.34a.66.66 0 0 1-.66-.66c0-.37.3-.66.66-.66h19.34a10.84 10.84 0 0 0 4.05-.79l-1.34-1.24h-25.94l-1.33 1.24.02.01.27.1c.77.3 1.59.49 2.41.6.36.04.62.37.57.73a.66.66 0 0 1-.73.57 12.2 12.2 0 0 1-6.15-2.62l-.45-.36-1.06 1.33c1.35 1.1 2.8 2.02 4.44 2.62l.03.01c1.5.54 3.1.83 4.7.83h20.5a13.9 13.9 0 0 0 9.18-3.46z"/><clipPath id="xewmb"><use fill="#fff" xlink:href="#xewma"/></clipPath></defs><g><g transform="translate(-767 -925)"><use fill="#fff" xlink:href="#xewma"/><use fill="#fff" fill-opacity="0" stroke="#e6e6e6" stroke-miterlimit="50" stroke-width="2" clip-path="url(&quot;#xewmb&quot;)" xlink:href="#xewma"/></g><g transform="translate(-767 -925)"><use fill="#e31e24" xlink:href="#xewmc"/></g></g></svg>