<svg xmlns="http://www.w3.org/2000/svg" xmlns:xlink="http://www.w3.org/1999/xlink" width="78" height="78" viewBox="0 0 78 78"><defs><path id="fw4wa" d="M1337 964a39 39 0 1 1 78 0 39 39 0 1 1-78 0z"/><path id="fw4wc" d="M1385.12 952.03c0 .46-.37.84-.83.84h-24.33a.84.84 0 0 1-.84-.84c0-.47.37-.84.84-.84h24.33c.46 0 .83.37.83.84zm5.15 0c0 .46-.37.84-.83.84h-1.06a.84.84 0 0 1-.83-.84c0-.47.37-.84.83-.84h1.06c.46 0 .83.37.83.84zm6.73 10.51v9.2c0 .46-.37.84-.84.84H1395v6.58c0 .46-.38.84-.84.84h-34.24c-2.7 0-4.91-2.22-4.91-4.95v-22.92-.02-.03a4.07 4.07 0 0 1 4.05-4.08h32.85a3.1 3.1 0 0 1 3.09 3.11v10.59h1.17c.47 0 .84.37.84.84zm-40.33-10.46c0 1.32 1.07 2.39 2.38 2.39h34.27v-3.36c0-.78-.64-1.42-1.42-1.42h-32.85a2.38 2.38 0 0 0-2.38 2.39zm36.65 20.5h-4.76a5.43 5.43 0 0 1-5.4-5.44c0-3 2.42-5.44 5.4-5.44h4.76v-5.55h-34.27a4 4 0 0 1-2.38-.77v19.67c0 1.8 1.45 3.26 3.24 3.26h33.4zm2-9.2h-6.76a3.74 3.74 0 0 0-3.72 3.76 3.74 3.74 0 0 0 3.72 3.75h6.77zm-4.1 3.76c0 1.35-1.1 2.46-2.45 2.46a2.46 2.46 0 0 1-2.44-2.46c0-1.36 1.1-2.47 2.44-2.47 1.35 0 2.44 1.1 2.44 2.47zm-1.68 0a.78.78 0 0 0-.77-.78.77.77 0 0 0-.77.78c0 .43.35.77.77.77.42 0 .77-.34.77-.77z"/><clipPath id="fw4wb"><use fill="#fff" xlink:href="#fw4wa"/></clipPath></defs><g><g transform="translate(-1337 -925)"><use fill="#fff" xlink:href="#fw4wa"/><use fill="#fff" fill-opacity="0" stroke="#e6e6e6" stroke-miterlimit="50" stroke-width="2" clip-path="url(&quot;#fw4wb&quot;)" xlink:href="#fw4wa"/></g><g transform="translate(-1337 -925)"><use fill="#e42120" xlink:href="#fw4wc"/></g></g></svg>