<svg xmlns="http://www.w3.org/2000/svg" xmlns:xlink="http://www.w3.org/1999/xlink" width="78" height="78" viewBox="0 0 78 78"><defs><path id="p09ca" d="M1061 964a39 39 0 1 1 78 0 39 39 0 1 1-78 0z"/><path id="p09cc" d="M1118 978.65V985h-35v-6.35c0-4.16 2.93-7.7 7.13-8.6l5.47-1.17v-1.68a8.04 8.04 0 0 1-3.5-6.59v-1.82l-1.13-1.64a9.38 9.38 0 0 1-1.67-5.34c0-4.86 4.08-8.81 9.1-8.81h4.2c2.48 0 4.53 1.8 4.86 4.1a4.8 4.8 0 0 1 4.24 4.7c0 1.91-.58 3.76-1.67 5.35l-1.13 1.64v1.82a8.04 8.04 0 0 1-3.5 6.6v1.67l5.47 1.17c4.2.9 7.13 4.44 7.13 8.6zm-25.9-24.13h1.4v.24a19.84 19.84 0 0 0 8.2 1.79h1.7l-1.4-2.03h2.16l3.34 1.61v-1.61h1.4v1.82a8.05 8.05 0 0 0 1.4-4.53 3.45 3.45 0 0 0-3.5-3.39h-.7v-.68a3.45 3.45 0 0 0-3.5-3.38h-4.2a7.59 7.59 0 0 0-6.3 11.98zm8.4 12.87c3.86 0 7-3.04 7-6.78v-2.97l-2.5-1.2 1 1.46h-4.3c-2.81 0-5.62-.57-8.2-1.65v4.36a6.9 6.9 0 0 0 7 6.78zm0 1.35a8.55 8.55 0 0 1-3.5-.75v1.65l2.94 1.13h1.13l2.93-1.13v-1.65a8.57 8.57 0 0 1-3.5.75zm-4.9 2.5v2.46c0 .31.35.55.65.43l3.41-1.32h1.67l3.42 1.32c.3.12.65-.12.65-.43v-2.47c0-.3-.35-.54-.65-.42l-3.42 1.32h-1.66l-3.42-1.32c-.3-.12-.65.11-.65.42zm5.46 2.92h-1.13l-2.03.79.54 2.36a9.07 9.07 0 0 0 2.06 3.99 9.07 9.07 0 0 0 2.06-4l.54-2.35zm-9.66 5.42v-8.41l-.97.2a7.46 7.46 0 0 0-6.03 7.28v5h5.6v-3.4h.7c.39 0 .7-.3.7-.67zm18.2 1.92a2.04 2.04 0 0 1-1.4-1.92v-8.71l-1.55-.34c.1.22.15.45.15.7v2.47a1.85 1.85 0 0 1-2.38 1.74l-.5 2.16a10.42 10.42 0 0 1-2.93 5.17l-.49.48-.5-.48a10.43 10.43 0 0 1-2.93-5.17l-.5-2.16a1.85 1.85 0 0 1-2.38-1.74v-2.47c.01-.25.06-.48.16-.7l-1.55.34v8.71c0 .89-.59 1.64-1.4 1.92v2.15h18.2zm7-2.85c0-3.52-2.48-6.5-6.03-7.27l-.97-.21v8.41c0 .37.31.68.7.68h.7v3.39h5.6z"/><clipPath id="p09cb"><use fill="#fff" xlink:href="#p09ca"/></clipPath></defs><g><g transform="translate(-1061 -925)"><use fill="#fff" xlink:href="#p09ca"/><use fill="#fff" fill-opacity="0" stroke="#e6e6e6" stroke-miterlimit="50" stroke-width="2" clip-path="url(&quot;#p09cb&quot;)" xlink:href="#p09ca"/></g><g transform="translate(-1061 -925)"><use fill="#e42120" xlink:href="#p09cc"/></g></g></svg>