<svg xmlns="http://www.w3.org/2000/svg" xmlns:xlink="http://www.w3.org/1999/xlink" width="21" height="21" viewBox="0 0 21 21"><defs><path id="mmkga" d="M471.5 1219a10.5 10.5 0 1 1 0 21 10.5 10.5 0 0 1 0-21z"/><path id="mmkgb" d="M470.2 1231.02c0-2.28 2.53-2.54 2.53-4.34 0-.84-.72-1.48-1.71-1.48-.62 0-1.23.25-1.7.63l-.8-1.04a4.04 4.04 0 0 1 2.6-.96c1.7 0 3.14 1.08 3.14 2.75 0 2.47-2.66 2.71-2.66 4.53v.61h-1.4zm-.05 2.13h1.5v1.48h-1.5z"/><clipPath id="mmkgc"><use fill="#fff" xlink:href="#mmkga"/></clipPath></defs><g><g opacity=".48" transform="translate(-461 -1219)"><use fill="#666" xlink:href="#mmkgb"/></g><g transform="translate(-461 -1219)"><use fill="#fff" fill-opacity="0" stroke="#cdcdcd" stroke-miterlimit="50" stroke-width="2" clip-path="url(&quot;#mmkgc&quot;)" xlink:href="#mmkga"/></g></g></svg>