<svg xmlns="http://www.w3.org/2000/svg" xmlns:xlink="http://www.w3.org/1999/xlink" width="15" height="18" viewBox="0 0 15 18"><defs><path id="9ef9a" d="M468.87 339.56c-1.41-1.62-1.18-4.39-1.15-4.65.09-2 1.02-2.96 1.8-3.4a4 4 0 0 1 1.96-.51h.06a4 4 0 0 1 1.96.53c.76.44 1.68 1.39 1.77 3.38.03.26.26 3.03-1.14 4.65a3.34 3.34 0 0 1-2.58 1.14h-.11a3.33 3.33 0 0 1-2.57-1.14zm.73-.67c.46.53 1.07.8 1.88.8h.03c.81 0 1.42-.27 1.88-.8 1.16-1.33.9-3.86.9-3.89v-.03c-.11-2.53-1.79-2.94-2.77-2.96h-.05c-.8 0-2.65.29-2.77 2.96v.03c-.01.02-.26 2.57.9 3.9zm9.22 8.1a.5.5 0 0 1-.19.23c-.1.07-2.73 1.78-7.12 1.78-4.4 0-7.02-1.7-7.13-1.78a.48.48 0 0 1-.2-.24c-.19-.5-.18-1.5-.18-1.69v-.1c.03-.73.07-2.46 1.66-3.02h.04c1.65-.43 3.01-1.4 3.03-1.42.22-.16.53-.1.68.13a.5.5 0 0 1-.12.7c-.06.04-1.51 1.08-3.33 1.55-.85.31-.95 1.24-.97 2.09v.1c-.01.33.01.85.07 1.15.6.34 2.93 1.53 6.44 1.53 3.53 0 5.85-1.19 6.44-1.53.06-.3.08-.82.08-1.15v-.1c-.03-.85-.13-1.77-.98-2.08a11.27 11.27 0 0 1-3.33-1.56.5.5 0 0 1-.12-.7.49.49 0 0 1 .68-.12c.02.01 1.39.98 3.03 1.4l.04.02c1.59.55 1.63 2.28 1.66 3.01v.1c0 .2 0 1.2-.18 1.7z"/></defs><g><g opacity=".25" transform="translate(-464 -331)"><use xlink:href="#9ef9a"/></g></g></svg>