<svg xmlns="http://www.w3.org/2000/svg" xmlns:xlink="http://www.w3.org/1999/xlink" width="50" height="59" viewBox="0 0 50 59"><defs><path id="s18rb" d="M574.69 1746.88a4 4 0 0 1 4-4h38.19a4 4 0 0 1 4 4v23.13a4 4 0 0 1-4 4h-38.19a4 4 0 0 1-4-4z"/><path id="s18ra" d="M614.96 1758.16h-3.26l.01-1.89c0-.83.7-1.51 1.54-1.51h.21c.85 0 1.54.68 1.54 1.51zm-10.73-2.8v9.14c0 .68-.68 1.23-1.51 1.23s-1.51-.55-1.51-1.23v-9.15c0-.67.68-1.22 1.5-1.22.84 0 1.52.55 1.52 1.22zm18.38-6.35v17.4c0 4.17-3.65 7.59-8.11 7.59h-33.37c-4.46 0-8.11-3.42-8.11-7.59v-17.4c0-4.18 3.65-7.59 8.11-7.59h33.37c4.46 0 8.1 3.41 8.1 7.59zm-39.25 19.3v-18.34h4.13v-2.71l-11.02-.02v2.67h3.44v18.4zm8.95-15.6v9.78c0 1.42.08 2.12 0 2.37-.29.76-1.55 1.57-2.04.08-.08-.26 0-1.04-.01-2.38l-.01-9.86h-3.43v9.7c.01 1.49-.03 2.6.02 3.1.08.9.05 1.93.89 2.52 1.55 1.1 4.52-.17 5.26-1.75v2.02h2.77v-15.59zm14.48 11.2l-.01-8.15c0-3.1-2.35-4.96-5.53-2.45l.02-6.06h-3.45l-.01 20.92 2.83-.05.26-1.3c3.62 3.3 5.9 1.04 5.89-2.91zm10.79-1.08l-2.59.01V1764.62a1.4 1.4 0 0 1-1.42 1.39h-.5a1.4 1.4 0 0 1-1.42-1.39v-3.76h5.92v-2.21c0-1.62-.04-3.23-.17-4.15-.43-2.92-4.56-3.38-6.65-1.9a3.85 3.85 0 0 0-1.45 1.94c-.29.84-.44 1.99-.44 3.44v4.86c0 8.08 9.9 6.94 8.72-.01zm-13.6-27.72a38.3 38.3 0 0 1-.06-2.8v-10.92h3.16v12.6c0 .7.57 1.25 1.26 1.25.69 0 1.26-.56 1.26-1.24v-12.61h3.02v16.2h-3.84l.06-1.34c-.26.54-.58.95-.96 1.23-.39.27-.83.4-1.32.4a2.4 2.4 0 0 1-1.42-.39c-.37-.26-.65-.6-.82-1.03a4.73 4.73 0 0 1-.33-1.35zm-11.31-7.8c0-1.56.13-2.78.39-3.65.26-.87.73-1.57 1.41-2.1a4.1 4.1 0 0 1 2.6-.8c.9 0 1.66.17 2.3.51a3.8 3.8 0 0 1 1.47 1.33c.35.55.58 1.11.71 1.69.13.58.2 1.46.2 2.65v4.1c0 1.5-.07 2.6-.19 3.31-.11.7-.36 1.36-.75 1.97a3.6 3.6 0 0 1-1.48 1.35c-.6.29-1.3.43-2.09.43-.87 0-1.61-.12-2.22-.37a3.02 3.02 0 0 1-1.42-1.12c-.34-.5-.57-1.1-.72-1.82-.14-.7-.21-1.77-.21-3.2v-4.28zm3 6.43c0 .92.7 1.67 1.54 1.67.84 0 1.52-.75 1.52-1.67v-8.63c0-.91-.68-1.66-1.52-1.66s-1.53.75-1.53 1.66zm-10.63-8.07l-4.56-10.67h3.92l2.31 7.93 2.28-7.9h3.97l-4.29 10.64v12.43h-3.63z"/><path id="s18rd" d="M559 1715a10 10 0 0 1 10-10h54a10 10 0 0 1 10 10v16a10 10 0 0 1-10 10h-54a10 10 0 0 1-10-10z"/><clipPath id="s18rc"><use xlink:href="#s18ra"/></clipPath></defs><g><g transform="translate(-573 -1715)"><use fill="#fff" xlink:href="#s18rb"/></g><g transform="translate(-573 -1715)"><use fill="#e31e24" xlink:href="#s18ra"/></g><g clip-path="url(#s18rc)" transform="translate(-573 -1715)"><use xlink:href="#s18rd"/></g></g></svg>